<?xml version="1.0" encoding="UTF-8"?><svg xmlns="http://www.w3.org/2000/svg" xmlns:xlink="http://www.w3.org/1999/xlink" contentScriptType="text/ecmascript" width="375pt" zoomAndPan="magnify" contentStyleType="text/css" viewBox="0 0 375 374.999991" height="374.999991pt" preserveAspectRatio="xMidYMid meet" version="1.2"><defs><g/></defs><g xml:id="surface1" id="surface1"><rect x="0" width="375" y="0" height="374.999991" style="fill:rgb(100%,100%,100%);fill-opacity:1;stroke:none;"/><rect x="0" width="375" y="0" height="374.999991" style="fill:rgb(100%,100%,100%);fill-opacity:1;stroke:none;"/><rect x="0" width="375" y="0" height="374.999991" style="fill:rgb(32.939148%,32.939148%,32.939148%);fill-opacity:1;stroke:none;"/><path style=" stroke:none;fill-rule:nonzero;fill:rgb(100%,100%,100%);fill-opacity:1;" d="M 139.589844 123.722656 L 117.980469 123.722656 L 117.980469 149.972656 L 120.136719 149.972656 L 120.136719 125.878906 L 144.230469 125.878906 L 144.230469 123.722656 Z M 139.589844 123.722656 "/><path style=" stroke:none;fill-rule:nonzero;fill:rgb(100%,100%,100%);fill-opacity:1;" d="M 235.402344 251.273438 L 257.015625 251.273438 L 257.015625 225.023438 L 254.855469 225.023438 L 254.855469 249.113281 L 230.765625 249.113281 L 230.765625 251.273438 Z M 235.402344 251.273438 "/><path style=" stroke:none;fill-rule:nonzero;fill:rgb(100%,100%,100%);fill-opacity:1;" d="M 257.015625 145.332031 L 257.015625 123.722656 L 230.765625 123.722656 L 230.765625 125.878906 L 254.855469 125.878906 L 254.855469 149.972656 L 257.015625 149.972656 Z M 257.015625 145.332031 "/><path style=" stroke:none;fill-rule:nonzero;fill:rgb(100%,100%,100%);fill-opacity:1;" d="M 117.980469 229.660156 L 117.980469 251.273438 L 144.230469 251.273438 L 144.230469 249.113281 L 120.136719 249.113281 L 120.136719 225.023438 L 117.980469 225.023438 Z M 117.980469 229.660156 "/><path style=" stroke:none;fill-rule:nonzero;fill:rgb(100%,0%,0%);fill-opacity:1;" d="M 237.785156 137.414062 C 237.414062 137.414062 237.050781 137.449219 236.6875 137.519531 C 236.324219 137.59375 235.972656 137.699219 235.632812 137.839844 C 235.292969 137.980469 234.96875 138.15625 234.660156 138.359375 C 234.351562 138.566406 234.070312 138.796875 233.808594 139.058594 C 233.546875 139.320312 233.3125 139.605469 233.109375 139.914062 C 232.902344 140.21875 232.730469 140.542969 232.589844 140.886719 C 232.445312 141.226562 232.339844 141.578125 232.269531 141.941406 C 232.195312 142.300781 232.160156 142.667969 232.160156 143.039062 C 232.160156 143.40625 232.195312 143.773438 232.269531 144.136719 C 232.339844 144.496094 232.445312 144.847656 232.589844 145.191406 C 232.730469 145.53125 232.902344 145.855469 233.109375 146.164062 C 233.3125 146.46875 233.546875 146.753906 233.808594 147.015625 C 234.070312 147.277344 234.351562 147.507812 234.660156 147.714844 C 234.96875 147.917969 235.292969 148.09375 235.632812 148.234375 C 235.972656 148.375 236.324219 148.480469 236.6875 148.554688 C 237.050781 148.625 237.414062 148.664062 237.785156 148.664062 C 238.15625 148.664062 238.519531 148.625 238.882812 148.554688 C 239.246094 148.480469 239.597656 148.375 239.9375 148.234375 C 240.277344 148.09375 240.601562 147.917969 240.910156 147.714844 C 241.21875 147.507812 241.5 147.277344 241.761719 147.015625 C 242.023438 146.753906 242.257812 146.46875 242.460938 146.164062 C 242.667969 145.855469 242.839844 145.53125 242.980469 145.191406 C 243.125 144.847656 243.230469 144.496094 243.300781 144.136719 C 243.375 143.773438 243.410156 143.40625 243.410156 143.039062 C 243.410156 142.667969 243.375 142.300781 243.300781 141.941406 C 243.230469 141.578125 243.125 141.226562 242.980469 140.886719 C 242.839844 140.542969 242.667969 140.21875 242.460938 139.914062 C 242.257812 139.605469 242.023438 139.320312 241.761719 139.058594 C 241.5 138.796875 241.21875 138.566406 240.910156 138.359375 C 240.601562 138.15625 240.277344 137.980469 239.9375 137.839844 C 239.597656 137.699219 239.246094 137.59375 238.882812 137.519531 C 238.519531 137.449219 238.15625 137.414062 237.785156 137.414062 Z M 237.785156 137.414062 "/><g style="fill:rgb(100%,100%,100%);fill-opacity:1;"><g transform="translate(143.40209, 193.124987)"><path style="stroke:none;" d="M 4.8125 -4.1875 L 3.171875 -4.1875 L 3.171875 0 L 1.015625 0 L 1.015625 -11.21875 L 4.765625 -11.21875 C 5.390625 -11.21875 5.953125 -11.144531 6.453125 -11 C 6.960938 -10.851562 7.394531 -10.640625 7.75 -10.359375 C 8.101562 -10.078125 8.375 -9.722656 8.5625 -9.296875 C 8.757812 -8.878906 8.859375 -8.394531 8.859375 -7.84375 C 8.859375 -7.4375 8.8125 -7.070312 8.71875 -6.75 C 8.625 -6.425781 8.488281 -6.140625 8.3125 -5.890625 C 8.132812 -5.640625 7.921875 -5.414062 7.671875 -5.21875 C 7.421875 -5.03125 7.140625 -4.867188 6.828125 -4.734375 L 9.25 -0.09375 L 9.25 0 L 6.921875 0 Z M 3.171875 -5.953125 L 4.78125 -5.953125 C 5.382812 -5.953125 5.851562 -6.101562 6.1875 -6.40625 C 6.519531 -6.71875 6.6875 -7.144531 6.6875 -7.6875 C 6.6875 -8.25 6.523438 -8.6875 6.203125 -9 C 5.878906 -9.3125 5.398438 -9.46875 4.765625 -9.46875 L 3.171875 -9.46875 Z M 3.171875 -5.953125 "/></g></g><g style="fill:rgb(100%,100%,100%);fill-opacity:1;"><g transform="translate(152.867693, 193.124987)"><path style="stroke:none;" d="M 6.828125 -2.921875 C 6.828125 -3.128906 6.789062 -3.316406 6.71875 -3.484375 C 6.65625 -3.660156 6.539062 -3.820312 6.375 -3.96875 C 6.207031 -4.125 5.988281 -4.265625 5.71875 -4.390625 C 5.445312 -4.515625 5.113281 -4.632812 4.71875 -4.75 C 4.226562 -4.882812 3.757812 -5.050781 3.3125 -5.25 C 2.875 -5.445312 2.484375 -5.6875 2.140625 -5.96875 C 1.804688 -6.25 1.535156 -6.578125 1.328125 -6.953125 C 1.128906 -7.328125 1.03125 -7.757812 1.03125 -8.25 C 1.03125 -8.726562 1.128906 -9.160156 1.328125 -9.546875 C 1.523438 -9.929688 1.800781 -10.257812 2.15625 -10.53125 C 2.507812 -10.800781 2.925781 -11.007812 3.40625 -11.15625 C 3.894531 -11.300781 4.421875 -11.375 4.984375 -11.375 C 5.566406 -11.375 6.101562 -11.285156 6.59375 -11.109375 C 7.082031 -10.941406 7.5 -10.707031 7.84375 -10.40625 C 8.195312 -10.101562 8.46875 -9.738281 8.65625 -9.3125 C 8.851562 -8.894531 8.953125 -8.429688 8.953125 -7.921875 L 6.84375 -7.921875 C 6.832031 -8.179688 6.785156 -8.414062 6.703125 -8.625 C 6.628906 -8.832031 6.515625 -9.007812 6.359375 -9.15625 C 6.203125 -9.3125 6.003906 -9.429688 5.765625 -9.515625 C 5.535156 -9.597656 5.265625 -9.640625 4.953125 -9.640625 C 4.660156 -9.640625 4.398438 -9.601562 4.171875 -9.53125 C 3.953125 -9.46875 3.765625 -9.375 3.609375 -9.25 C 3.453125 -9.125 3.332031 -8.972656 3.25 -8.796875 C 3.175781 -8.628906 3.140625 -8.445312 3.140625 -8.25 C 3.140625 -8.03125 3.191406 -7.835938 3.296875 -7.671875 C 3.398438 -7.503906 3.550781 -7.351562 3.75 -7.21875 C 3.957031 -7.082031 4.203125 -6.957031 4.484375 -6.84375 C 4.773438 -6.726562 5.097656 -6.625 5.453125 -6.53125 C 5.960938 -6.375 6.429688 -6.1875 6.859375 -5.96875 C 7.296875 -5.757812 7.671875 -5.503906 7.984375 -5.203125 C 8.296875 -4.910156 8.535156 -4.578125 8.703125 -4.203125 C 8.878906 -3.828125 8.96875 -3.40625 8.96875 -2.9375 C 8.96875 -2.445312 8.867188 -2.007812 8.671875 -1.625 C 8.472656 -1.25 8.195312 -0.925781 7.84375 -0.65625 C 7.5 -0.394531 7.082031 -0.195312 6.59375 -0.0625 C 6.113281 0.0703125 5.59375 0.140625 5.03125 0.140625 C 4.675781 0.140625 4.320312 0.109375 3.96875 0.046875 C 3.613281 -0.015625 3.273438 -0.113281 2.953125 -0.25 C 2.628906 -0.382812 2.328125 -0.550781 2.046875 -0.75 C 1.773438 -0.945312 1.535156 -1.175781 1.328125 -1.4375 C 1.128906 -1.707031 0.972656 -2.007812 0.859375 -2.34375 C 0.742188 -2.6875 0.6875 -3.066406 0.6875 -3.484375 L 2.8125 -3.484375 C 2.820312 -3.140625 2.878906 -2.847656 2.984375 -2.609375 C 3.097656 -2.367188 3.25 -2.171875 3.4375 -2.015625 C 3.632812 -1.859375 3.863281 -1.742188 4.125 -1.671875 C 4.394531 -1.609375 4.695312 -1.578125 5.03125 -1.578125 C 5.3125 -1.578125 5.5625 -1.609375 5.78125 -1.671875 C 6.007812 -1.734375 6.203125 -1.820312 6.359375 -1.9375 C 6.515625 -2.0625 6.628906 -2.207031 6.703125 -2.375 C 6.785156 -2.539062 6.828125 -2.722656 6.828125 -2.921875 Z M 6.828125 -2.921875 "/></g></g><g style="fill:rgb(100%,100%,100%);fill-opacity:1;"><g transform="translate(162.333295, 193.124987)"><path style="stroke:none;" d="M 6.5 -4.46875 L 7.3125 -11.21875 L 9.296875 -11.21875 L 7.75 0 L 5.78125 0 L 4.71875 -6.625 L 3.703125 0 L 1.734375 0 L 0.203125 -11.21875 L 2.1875 -11.21875 L 2.984375 -4.515625 L 3.9375 -11.21875 L 5.484375 -11.21875 Z M 6.5 -4.46875 "/></g></g><g style="fill:rgb(100%,100%,100%);fill-opacity:1;"><g transform="translate(171.798897, 193.124987)"><path style="stroke:none;" d="M 1.484375 -11.21875 L 7.96875 -11.21875 L 7.96875 -9.46875 L 5.78125 -9.46875 L 5.78125 -1.734375 L 7.96875 -1.734375 L 7.96875 0 L 1.484375 0 L 1.484375 -1.734375 L 3.625 -1.734375 L 3.625 -9.46875 L 1.484375 -9.46875 Z M 1.484375 -11.21875 "/></g></g><g style="fill:rgb(100%,100%,100%);fill-opacity:1;"><g transform="translate(181.264499, 193.124987)"><path style="stroke:none;" d="M 9.25 -9.453125 L 5.796875 -9.453125 L 5.796875 0 L 3.625 0 L 3.625 -9.453125 L 0.203125 -9.453125 L 0.203125 -11.21875 L 9.25 -11.21875 Z M 9.25 -9.453125 "/></g></g><g style="fill:rgb(100%,100%,100%);fill-opacity:1;"><g transform="translate(190.730101, 193.124987)"><path style="stroke:none;" d="M 8.796875 -3.515625 C 8.765625 -2.953125 8.644531 -2.441406 8.4375 -1.984375 C 8.226562 -1.535156 7.945312 -1.148438 7.59375 -0.828125 C 7.25 -0.515625 6.832031 -0.269531 6.34375 -0.09375 C 5.863281 0.0703125 5.332031 0.15625 4.75 0.15625 C 4.082031 0.15625 3.492188 0.0351562 2.984375 -0.203125 C 2.472656 -0.441406 2.039062 -0.78125 1.6875 -1.21875 C 1.332031 -1.664062 1.0625 -2.195312 0.875 -2.8125 C 0.695312 -3.425781 0.609375 -4.101562 0.609375 -4.84375 L 0.609375 -6.359375 C 0.609375 -7.097656 0.703125 -7.773438 0.890625 -8.390625 C 1.085938 -9.015625 1.363281 -9.546875 1.71875 -9.984375 C 2.082031 -10.429688 2.519531 -10.773438 3.03125 -11.015625 C 3.550781 -11.253906 4.128906 -11.375 4.765625 -11.375 C 5.378906 -11.375 5.925781 -11.285156 6.40625 -11.109375 C 6.882812 -10.941406 7.289062 -10.695312 7.625 -10.375 C 7.96875 -10.050781 8.238281 -9.65625 8.4375 -9.1875 C 8.632812 -8.71875 8.757812 -8.191406 8.8125 -7.609375 L 6.65625 -7.609375 C 6.632812 -7.941406 6.582031 -8.234375 6.5 -8.484375 C 6.414062 -8.734375 6.296875 -8.941406 6.140625 -9.109375 C 5.992188 -9.273438 5.804688 -9.398438 5.578125 -9.484375 C 5.347656 -9.566406 5.078125 -9.609375 4.765625 -9.609375 C 4.429688 -9.609375 4.140625 -9.535156 3.890625 -9.390625 C 3.640625 -9.253906 3.429688 -9.046875 3.265625 -8.765625 C 3.109375 -8.492188 2.992188 -8.15625 2.921875 -7.75 C 2.847656 -7.34375 2.8125 -6.882812 2.8125 -6.375 L 2.8125 -4.84375 C 2.8125 -3.738281 2.960938 -2.921875 3.265625 -2.390625 C 3.578125 -1.867188 4.070312 -1.609375 4.75 -1.609375 C 5.3125 -1.609375 5.753906 -1.753906 6.078125 -2.046875 C 6.410156 -2.347656 6.597656 -2.835938 6.640625 -3.515625 Z M 8.796875 -3.515625 "/></g></g><g style="fill:rgb(100%,100%,100%);fill-opacity:1;"><g transform="translate(200.195704, 193.124987)"><path style="stroke:none;" d="M 8.421875 0 L 6.265625 0 L 6.265625 -4.859375 L 3.09375 -4.859375 L 3.09375 0 L 0.953125 0 L 0.953125 -11.21875 L 3.09375 -11.21875 L 3.09375 -6.625 L 6.265625 -6.625 L 6.265625 -11.21875 L 8.421875 -11.21875 Z M 8.421875 0 "/></g></g><g style="fill:rgb(100%,100%,100%);fill-opacity:1;"><g transform="translate(209.661306, 193.124987)"><path style="stroke:none;" d="M 7.90625 -4.921875 L 3.3125 -4.921875 L 3.3125 -1.75 L 8.6875 -1.75 L 8.6875 0 L 1.125 0 L 1.125 -11.21875 L 8.671875 -11.21875 L 8.671875 -9.453125 L 3.3125 -9.453125 L 3.3125 -6.625 L 7.90625 -6.625 Z M 7.90625 -4.921875 "/></g></g><g style="fill:rgb(100%,100%,100%);fill-opacity:1;"><g transform="translate(219.126908, 193.124987)"><path style="stroke:none;" d="M 0.96875 0 L 0.96875 -11.21875 L 3.875 -11.21875 C 4.613281 -11.21875 5.285156 -11.085938 5.890625 -10.828125 C 6.492188 -10.578125 7.007812 -10.222656 7.4375 -9.765625 C 7.863281 -9.316406 8.191406 -8.773438 8.421875 -8.140625 C 8.660156 -7.515625 8.78125 -6.820312 8.78125 -6.0625 L 8.78125 -5.140625 C 8.78125 -4.378906 8.660156 -3.6875 8.421875 -3.0625 C 8.191406 -2.4375 7.863281 -1.894531 7.4375 -1.4375 C 7.019531 -0.976562 6.515625 -0.625 5.921875 -0.375 C 5.335938 -0.125 4.6875 0 3.96875 0 Z M 3.140625 -9.46875 L 3.140625 -1.734375 L 3.96875 -1.734375 C 4.375 -1.734375 4.738281 -1.8125 5.0625 -1.96875 C 5.382812 -2.125 5.65625 -2.347656 5.875 -2.640625 C 6.101562 -2.929688 6.273438 -3.285156 6.390625 -3.703125 C 6.515625 -4.128906 6.578125 -4.609375 6.578125 -5.140625 L 6.578125 -6.078125 C 6.578125 -6.578125 6.515625 -7.035156 6.390625 -7.453125 C 6.273438 -7.867188 6.101562 -8.222656 5.875 -8.515625 C 5.65625 -8.816406 5.375 -9.050781 5.03125 -9.21875 C 4.695312 -9.382812 4.3125 -9.46875 3.875 -9.46875 Z M 3.140625 -9.46875 "/></g></g></g></svg>