<?xml version="1.0" encoding="UTF-8"?><svg xmlns="http://www.w3.org/2000/svg" xmlns:xlink="http://www.w3.org/1999/xlink" contentScriptType="text/ecmascript" width="375pt" zoomAndPan="magnify" contentStyleType="text/css" viewBox="0 0 375 374.999991" height="374.999991pt" preserveAspectRatio="xMidYMid meet" version="1.2"><defs><g/></defs><g xml:id="surface1" id="surface1"><rect x="0" width="375" y="0" height="374.999991" style="fill:rgb(100%,100%,100%);fill-opacity:1;stroke:none;"/><rect x="0" width="375" y="0" height="374.999991" style="fill:rgb(100%,100%,100%);fill-opacity:1;stroke:none;"/><rect x="0" width="375" y="0" height="374.999991" style="fill:rgb(32.939148%,32.939148%,32.939148%);fill-opacity:1;stroke:none;"/><path style=" stroke:none;fill-rule:nonzero;fill:rgb(100%,100%,100%);fill-opacity:1;" d="M 101.402344 60.800781 L 62.5 60.800781 L 62.5 108.050781 L 66.382812 108.050781 L 66.382812 64.6875 L 109.75 64.6875 L 109.75 60.800781 Z M 101.402344 60.800781 "/><path style=" stroke:none;fill-rule:nonzero;fill:rgb(100%,100%,100%);fill-opacity:1;" d="M 273.589844 290.144531 L 312.492188 290.144531 L 312.492188 242.894531 L 308.609375 242.894531 L 308.609375 286.257812 L 265.242188 286.257812 L 265.242188 290.144531 Z M 273.589844 290.144531 "/><path style=" stroke:none;fill-rule:nonzero;fill:rgb(100%,100%,100%);fill-opacity:1;" d="M 312.492188 99.703125 L 312.492188 60.800781 L 265.242188 60.800781 L 265.242188 64.6875 L 308.609375 64.6875 L 308.609375 108.050781 L 312.492188 108.050781 Z M 312.492188 99.703125 "/><path style=" stroke:none;fill-rule:nonzero;fill:rgb(100%,100%,100%);fill-opacity:1;" d="M 62.5 251.242188 L 62.5 290.144531 L 109.75 290.144531 L 109.75 286.257812 L 66.382812 286.257812 L 66.382812 242.894531 L 62.5 242.894531 Z M 62.5 251.242188 "/><path style=" stroke:none;fill-rule:nonzero;fill:rgb(100%,0%,0%);fill-opacity:1;" d="M 277.925781 85.417969 C 277.257812 85.417969 276.601562 85.484375 275.949219 85.613281 C 275.296875 85.742188 274.664062 85.933594 274.050781 86.1875 C 273.433594 86.445312 272.851562 86.753906 272.300781 87.125 C 271.746094 87.492188 271.234375 87.914062 270.765625 88.382812 C 270.292969 88.855469 269.875 89.367188 269.503906 89.917969 C 269.136719 90.472656 268.824219 91.054688 268.570312 91.667969 C 268.316406 92.28125 268.125 92.917969 267.992188 93.566406 C 267.863281 94.21875 267.800781 94.878906 267.800781 95.542969 C 267.800781 96.207031 267.863281 96.867188 267.992188 97.519531 C 268.125 98.171875 268.316406 98.804688 268.570312 99.417969 C 268.824219 100.03125 269.136719 100.617188 269.503906 101.167969 C 269.875 101.722656 270.292969 102.234375 270.765625 102.703125 C 271.234375 103.171875 271.746094 103.59375 272.300781 103.960938 C 272.851562 104.332031 273.433594 104.644531 274.050781 104.898438 C 274.664062 105.152344 275.296875 105.34375 275.949219 105.472656 C 276.601562 105.605469 277.257812 105.667969 277.925781 105.667969 C 278.589844 105.667969 279.246094 105.605469 279.898438 105.472656 C 280.550781 105.34375 281.183594 105.152344 281.800781 104.898438 C 282.414062 104.644531 282.996094 104.332031 283.550781 103.960938 C 284.101562 103.59375 284.613281 103.171875 285.082031 102.703125 C 285.554688 102.234375 285.972656 101.722656 286.34375 101.167969 C 286.710938 100.617188 287.023438 100.03125 287.277344 99.417969 C 287.53125 98.804688 287.726562 98.171875 287.855469 97.519531 C 287.984375 96.867188 288.050781 96.207031 288.050781 95.542969 C 288.050781 94.878906 287.984375 94.21875 287.855469 93.566406 C 287.726562 92.917969 287.53125 92.28125 287.277344 91.667969 C 287.023438 91.054688 286.710938 90.472656 286.34375 89.917969 C 285.972656 89.367188 285.554688 88.855469 285.082031 88.382812 C 284.613281 87.914062 284.101562 87.492188 283.550781 87.125 C 282.996094 86.753906 282.414062 86.445312 281.800781 86.1875 C 281.183594 85.933594 280.550781 85.742188 279.898438 85.613281 C 279.246094 85.484375 278.589844 85.417969 277.925781 85.417969 Z M 277.925781 85.417969 "/><g style="fill:rgb(100%,100%,100%);fill-opacity:1;"><g transform="translate(72.350333, 192.082593)"><path style="stroke:none;" d="M 12.9375 -11.265625 L 8.53125 -11.265625 L 8.53125 0 L 2.71875 0 L 2.71875 -30.140625 L 12.8125 -30.140625 C 14.476562 -30.140625 15.988281 -29.941406 17.34375 -29.546875 C 18.695312 -29.148438 19.851562 -28.570312 20.8125 -27.8125 C 21.769531 -27.0625 22.503906 -26.117188 23.015625 -24.984375 C 23.535156 -23.847656 23.796875 -22.535156 23.796875 -21.046875 C 23.796875 -19.972656 23.664062 -19.003906 23.40625 -18.140625 C 23.15625 -17.273438 22.789062 -16.5 22.3125 -15.8125 C 21.84375 -15.132812 21.269531 -14.539062 20.59375 -14.03125 C 19.925781 -13.519531 19.179688 -13.078125 18.359375 -12.703125 L 24.84375 -0.265625 L 24.84375 0 L 18.609375 0 Z M 8.53125 -15.984375 L 12.828125 -15.984375 C 14.472656 -15.984375 15.738281 -16.398438 16.625 -17.234375 C 17.519531 -18.066406 17.96875 -19.207031 17.96875 -20.65625 C 17.96875 -22.15625 17.53125 -23.320312 16.65625 -24.15625 C 15.789062 -25 14.507812 -25.421875 12.8125 -25.421875 L 8.53125 -25.421875 Z M 8.53125 -15.984375 "/></g></g><g style="fill:rgb(100%,100%,100%);fill-opacity:1;"><g transform="translate(97.782106, 192.082593)"><path style="stroke:none;" d="M 18.359375 -7.859375 C 18.359375 -8.398438 18.265625 -8.90625 18.078125 -9.375 C 17.890625 -9.84375 17.570312 -10.28125 17.125 -10.6875 C 16.675781 -11.09375 16.085938 -11.460938 15.359375 -11.796875 C 14.640625 -12.140625 13.742188 -12.457031 12.671875 -12.75 C 11.359375 -13.101562 10.101562 -13.550781 8.90625 -14.09375 C 7.71875 -14.632812 6.664062 -15.285156 5.75 -16.046875 C 4.84375 -16.804688 4.113281 -17.6875 3.5625 -18.6875 C 3.019531 -19.695312 2.75 -20.859375 2.75 -22.171875 C 2.75 -23.441406 3.019531 -24.59375 3.5625 -25.625 C 4.101562 -26.65625 4.847656 -27.535156 5.796875 -28.265625 C 6.742188 -29.003906 7.863281 -29.566406 9.15625 -29.953125 C 10.457031 -30.347656 11.867188 -30.546875 13.390625 -30.546875 C 14.960938 -30.546875 16.398438 -30.316406 17.703125 -29.859375 C 19.003906 -29.410156 20.125 -28.773438 21.0625 -27.953125 C 22.007812 -27.128906 22.742188 -26.148438 23.265625 -25.015625 C 23.785156 -23.890625 24.046875 -22.648438 24.046875 -21.296875 L 18.375 -21.296875 C 18.351562 -21.972656 18.234375 -22.59375 18.015625 -23.15625 C 17.804688 -23.726562 17.488281 -24.21875 17.0625 -24.625 C 16.644531 -25.03125 16.117188 -25.347656 15.484375 -25.578125 C 14.859375 -25.804688 14.125 -25.921875 13.28125 -25.921875 C 12.507812 -25.921875 11.820312 -25.828125 11.21875 -25.640625 C 10.625 -25.453125 10.117188 -25.1875 9.703125 -24.84375 C 9.296875 -24.507812 8.984375 -24.109375 8.765625 -23.640625 C 8.546875 -23.179688 8.4375 -22.679688 8.4375 -22.140625 C 8.4375 -21.578125 8.578125 -21.066406 8.859375 -20.609375 C 9.148438 -20.160156 9.5625 -19.75 10.09375 -19.375 C 10.632812 -19.007812 11.285156 -18.675781 12.046875 -18.375 C 12.816406 -18.070312 13.6875 -17.789062 14.65625 -17.53125 C 16.03125 -17.132812 17.296875 -16.644531 18.453125 -16.0625 C 19.617188 -15.476562 20.617188 -14.789062 21.453125 -14 C 22.285156 -13.207031 22.929688 -12.300781 23.390625 -11.28125 C 23.859375 -10.269531 24.09375 -9.144531 24.09375 -7.90625 C 24.09375 -6.582031 23.828125 -5.40625 23.296875 -4.375 C 22.765625 -3.34375 22.03125 -2.472656 21.09375 -1.765625 C 20.15625 -1.054688 19.035156 -0.519531 17.734375 -0.15625 C 16.441406 0.207031 15.03125 0.390625 13.5 0.390625 C 12.539062 0.390625 11.585938 0.300781 10.640625 0.125 C 9.703125 -0.0390625 8.800781 -0.300781 7.9375 -0.65625 C 7.070312 -1.019531 6.265625 -1.46875 5.515625 -2 C 4.773438 -2.539062 4.132812 -3.171875 3.59375 -3.890625 C 3.050781 -4.609375 2.625 -5.421875 2.3125 -6.328125 C 2 -7.242188 1.84375 -8.253906 1.84375 -9.359375 L 7.5625 -9.359375 C 7.582031 -8.441406 7.738281 -7.660156 8.03125 -7.015625 C 8.320312 -6.367188 8.722656 -5.835938 9.234375 -5.421875 C 9.753906 -5.003906 10.375 -4.695312 11.09375 -4.5 C 11.820312 -4.3125 12.625 -4.21875 13.5 -4.21875 C 14.269531 -4.21875 14.953125 -4.304688 15.546875 -4.484375 C 16.148438 -4.671875 16.660156 -4.921875 17.078125 -5.234375 C 17.492188 -5.554688 17.8125 -5.941406 18.03125 -6.390625 C 18.25 -6.835938 18.359375 -7.328125 18.359375 -7.859375 Z M 18.359375 -7.859375 "/></g></g><g style="fill:rgb(100%,100%,100%);fill-opacity:1;"><g transform="translate(123.213879, 192.082593)"><path style="stroke:none;" d="M 17.453125 -11.984375 L 19.640625 -30.140625 L 24.984375 -30.140625 L 20.796875 0 L 15.546875 0 L 12.6875 -17.796875 L 9.9375 0 L 4.671875 0 L 0.53125 -30.140625 L 5.859375 -30.140625 L 8.015625 -12.109375 L 10.578125 -30.140625 L 14.734375 -30.140625 Z M 17.453125 -11.984375 "/></g></g><g style="fill:rgb(100%,100%,100%);fill-opacity:1;"><g transform="translate(148.645652, 192.082593)"><path style="stroke:none;" d="M 4 -30.140625 L 21.421875 -30.140625 L 21.421875 -25.4375 L 15.546875 -25.4375 L 15.546875 -4.671875 L 21.421875 -4.671875 L 21.421875 0 L 4 0 L 4 -4.671875 L 9.734375 -4.671875 L 9.734375 -25.4375 L 4 -25.4375 Z M 4 -30.140625 "/></g></g><g style="fill:rgb(100%,100%,100%);fill-opacity:1;"><g transform="translate(174.077426, 192.082593)"><path style="stroke:none;" d="M 24.859375 -25.390625 L 15.5625 -25.390625 L 15.5625 0 L 9.734375 0 L 9.734375 -25.390625 L 0.5625 -25.390625 L 0.5625 -30.140625 L 24.859375 -30.140625 Z M 24.859375 -25.390625 "/></g></g><g style="fill:rgb(100%,100%,100%);fill-opacity:1;"><g transform="translate(199.509199, 192.082593)"><path style="stroke:none;" d="M 23.640625 -9.4375 C 23.546875 -7.914062 23.21875 -6.546875 22.65625 -5.328125 C 22.09375 -4.117188 21.34375 -3.085938 20.40625 -2.234375 C 19.46875 -1.378906 18.347656 -0.71875 17.046875 -0.25 C 15.753906 0.207031 14.320312 0.4375 12.75 0.4375 C 10.96875 0.4375 9.382812 0.109375 8 -0.546875 C 6.625 -1.203125 5.46875 -2.117188 4.53125 -3.296875 C 3.59375 -4.484375 2.875 -5.898438 2.375 -7.546875 C 1.882812 -9.203125 1.640625 -11.023438 1.640625 -13.015625 L 1.640625 -17.078125 C 1.640625 -19.078125 1.898438 -20.90625 2.421875 -22.5625 C 2.941406 -24.21875 3.6875 -25.640625 4.65625 -26.828125 C 5.625 -28.015625 6.789062 -28.9375 8.15625 -29.59375 C 9.53125 -30.25 11.078125 -30.578125 12.796875 -30.578125 C 14.453125 -30.578125 15.921875 -30.34375 17.203125 -29.875 C 18.492188 -29.40625 19.59375 -28.734375 20.5 -27.859375 C 21.414062 -26.992188 22.132812 -25.929688 22.65625 -24.671875 C 23.1875 -23.421875 23.519531 -22.003906 23.65625 -20.421875 L 17.859375 -20.421875 C 17.804688 -21.328125 17.671875 -22.113281 17.453125 -22.78125 C 17.242188 -23.457031 16.9375 -24.019531 16.53125 -24.46875 C 16.125 -24.925781 15.613281 -25.265625 15 -25.484375 C 14.382812 -25.710938 13.648438 -25.828125 12.796875 -25.828125 C 11.898438 -25.828125 11.117188 -25.632812 10.453125 -25.25 C 9.785156 -24.863281 9.234375 -24.296875 8.796875 -23.546875 C 8.367188 -22.804688 8.050781 -21.894531 7.84375 -20.8125 C 7.632812 -19.726562 7.53125 -18.5 7.53125 -17.125 L 7.53125 -13.015625 C 7.53125 -10.046875 7.945312 -7.851562 8.78125 -6.4375 C 9.613281 -5.019531 10.9375 -4.3125 12.75 -4.3125 C 14.269531 -4.3125 15.46875 -4.710938 16.34375 -5.515625 C 17.226562 -6.328125 17.722656 -7.632812 17.828125 -9.4375 Z M 23.640625 -9.4375 "/></g></g><g style="fill:rgb(100%,100%,100%);fill-opacity:1;"><g transform="translate(224.940972, 192.082593)"><path style="stroke:none;" d="M 22.609375 0 L 16.84375 0 L 16.84375 -13.0625 L 8.328125 -13.0625 L 8.328125 0 L 2.546875 0 L 2.546875 -30.140625 L 8.328125 -30.140625 L 8.328125 -17.78125 L 16.84375 -17.78125 L 16.84375 -30.140625 L 22.609375 -30.140625 Z M 22.609375 0 "/></g></g><g style="fill:rgb(100%,100%,100%);fill-opacity:1;"><g transform="translate(250.372745, 192.082593)"><path style="stroke:none;" d="M 21.25 -13.203125 L 8.875 -13.203125 L 8.875 -4.703125 L 23.34375 -4.703125 L 23.34375 0 L 3.046875 0 L 3.046875 -30.140625 L 23.28125 -30.140625 L 23.28125 -25.390625 L 8.875 -25.390625 L 8.875 -17.796875 L 21.25 -17.796875 Z M 21.25 -13.203125 "/></g></g><g style="fill:rgb(100%,100%,100%);fill-opacity:1;"><g transform="translate(275.804519, 192.082593)"><path style="stroke:none;" d="M 2.59375 0 L 2.59375 -30.140625 L 10.390625 -30.140625 C 12.390625 -30.140625 14.195312 -29.796875 15.8125 -29.109375 C 17.4375 -28.429688 18.828125 -27.476562 19.984375 -26.25 C 21.140625 -25.03125 22.03125 -23.570312 22.65625 -21.875 C 23.28125 -20.175781 23.59375 -18.316406 23.59375 -16.296875 L 23.59375 -13.8125 C 23.59375 -11.78125 23.28125 -9.914062 22.65625 -8.21875 C 22.03125 -6.53125 21.148438 -5.078125 20.015625 -3.859375 C 18.878906 -2.640625 17.519531 -1.691406 15.9375 -1.015625 C 14.351562 -0.335938 12.601562 0 10.6875 0 Z M 8.4375 -25.421875 L 8.4375 -4.671875 L 10.6875 -4.671875 C 11.769531 -4.671875 12.742188 -4.878906 13.609375 -5.296875 C 14.472656 -5.710938 15.203125 -6.3125 15.796875 -7.09375 C 16.398438 -7.882812 16.859375 -8.84375 17.171875 -9.96875 C 17.492188 -11.09375 17.65625 -12.375 17.65625 -13.8125 L 17.65625 -16.328125 C 17.65625 -17.679688 17.5 -18.910156 17.1875 -20.015625 C 16.875 -21.128906 16.410156 -22.085938 15.796875 -22.890625 C 15.179688 -23.691406 14.421875 -24.3125 13.515625 -24.75 C 12.617188 -25.195312 11.578125 -25.421875 10.390625 -25.421875 Z M 8.4375 -25.421875 "/></g></g></g></svg>